%FSLAX45Y45*%
G04 Gerber Fmt 4.5, Leading zero omitted, Abs format (unit mm)*
G04 Created by KiCad (PCBNEW (5.1.9)-1) date 2021-03-24 11:59:08*
%MOMM*%
%LPD*%
G01*
G04 APERTURE LIST*
%TA.AperFunction,Profile*%
%ADD10C,0.050000*%
%TD*%
%ADD11C,0.200000*%
%ADD12C,0.300000*%
G04 APERTURE END LIST*
D10*
X15621000Y-7493000D02*
X11684000Y-7493000D01*
X15621000Y-11430000D02*
X15621000Y-7493000D01*
X11684000Y-11430000D02*
X15621000Y-11430000D01*
X11684000Y-7493000D02*
X11684000Y-11430000D01*
D11*
D12*
X11967928Y-11898214D02*
X11967928Y-11598214D01*
X12039357Y-11598214D01*
X12082214Y-11612500D01*
X12110786Y-11641071D01*
X12125071Y-11669643D01*
X12139357Y-11726786D01*
X12139357Y-11769643D01*
X12125071Y-11826786D01*
X12110786Y-11855357D01*
X12082214Y-11883929D01*
X12039357Y-11898214D01*
X11967928Y-11898214D01*
X12267928Y-11898214D02*
X12267928Y-11698214D01*
X12267928Y-11755357D02*
X12282214Y-11726786D01*
X12296500Y-11712500D01*
X12325071Y-11698214D01*
X12353643Y-11698214D01*
X12453643Y-11898214D02*
X12453643Y-11698214D01*
X12453643Y-11598214D02*
X12439357Y-11612500D01*
X12453643Y-11626786D01*
X12467928Y-11612500D01*
X12453643Y-11598214D01*
X12453643Y-11626786D01*
X12639357Y-11898214D02*
X12610786Y-11883929D01*
X12596500Y-11855357D01*
X12596500Y-11598214D01*
X12796500Y-11898214D02*
X12767928Y-11883929D01*
X12753643Y-11855357D01*
X12753643Y-11598214D01*
X13139357Y-11898214D02*
X13139357Y-11598214D01*
X13239357Y-11812500D01*
X13339357Y-11598214D01*
X13339357Y-11898214D01*
X13610786Y-11898214D02*
X13610786Y-11741071D01*
X13596500Y-11712500D01*
X13567928Y-11698214D01*
X13510786Y-11698214D01*
X13482214Y-11712500D01*
X13610786Y-11883929D02*
X13582214Y-11898214D01*
X13510786Y-11898214D01*
X13482214Y-11883929D01*
X13467928Y-11855357D01*
X13467928Y-11826786D01*
X13482214Y-11798214D01*
X13510786Y-11783929D01*
X13582214Y-11783929D01*
X13610786Y-11769643D01*
X13753643Y-11698214D02*
X13753643Y-11998214D01*
X13753643Y-11712500D02*
X13782214Y-11698214D01*
X13839357Y-11698214D01*
X13867928Y-11712500D01*
X13882214Y-11726786D01*
X13896500Y-11755357D01*
X13896500Y-11841071D01*
X13882214Y-11869643D01*
X13867928Y-11883929D01*
X13839357Y-11898214D01*
X13782214Y-11898214D01*
X13753643Y-11883929D01*
X14025071Y-11869643D02*
X14039357Y-11883929D01*
X14025071Y-11898214D01*
X14010786Y-11883929D01*
X14025071Y-11869643D01*
X14025071Y-11898214D01*
X14025071Y-11712500D02*
X14039357Y-11726786D01*
X14025071Y-11741071D01*
X14010786Y-11726786D01*
X14025071Y-11712500D01*
X14025071Y-11741071D01*
M02*
