%FSLAX45Y45*%
G04 Gerber Fmt 4.5, Leading zero omitted, Abs format (unit mm)*
G04 Created by KiCad (PCBNEW (5.1.9)-1) date 2021-03-24 11:59:08*
%MOMM*%
%LPD*%
G01*
G04 APERTURE LIST*
%TA.AperFunction,Profile*%
%ADD10C,0.050000*%
%TD*%
%ADD11C,0.200000*%
%ADD12C,0.300000*%
G04 APERTURE END LIST*
D10*
X15621000Y-7493000D02*
X11684000Y-7493000D01*
X15621000Y-11430000D02*
X15621000Y-7493000D01*
X11684000Y-11430000D02*
X15621000Y-11430000D01*
X11684000Y-7493000D02*
X11684000Y-11430000D01*
D11*
X14723000Y-11146000D02*
X14783000Y-11206000D01*
X14783000Y-11146000D02*
X14723000Y-11206000D01*
X15083000Y-11146000D02*
X15143000Y-11206000D01*
X15143000Y-11146000D02*
X15083000Y-11206000D01*
X12120000Y-10160000D02*
G75*
G03*
X12120000Y-10160000I-55000J0D01*
G01*
X12120000Y-11176000D02*
G75*
G03*
X12120000Y-11176000I-55000J0D01*
G01*
X12882000Y-10160000D02*
G75*
G03*
X12882000Y-10160000I-55000J0D01*
G01*
X12882000Y-11176000D02*
G75*
G03*
X12882000Y-11176000I-55000J0D01*
G01*
X13644000Y-8001000D02*
G75*
G03*
X13644000Y-8001000I-55000J0D01*
G01*
X13898000Y-8001000D02*
G75*
G03*
X13898000Y-8001000I-55000J0D01*
G01*
X14152000Y-8001000D02*
G75*
G03*
X14152000Y-8001000I-55000J0D01*
G01*
X15168000Y-9271000D02*
G75*
G03*
X15168000Y-9271000I-55000J0D01*
G01*
X15168000Y-10287000D02*
G75*
G03*
X15168000Y-10287000I-55000J0D01*
G01*
D12*
X11967928Y-11898214D02*
X11967928Y-11598214D01*
X12039357Y-11598214D01*
X12082214Y-11612500D01*
X12110786Y-11641071D01*
X12125071Y-11669643D01*
X12139357Y-11726786D01*
X12139357Y-11769643D01*
X12125071Y-11826786D01*
X12110786Y-11855357D01*
X12082214Y-11883929D01*
X12039357Y-11898214D01*
X11967928Y-11898214D01*
X12267928Y-11898214D02*
X12267928Y-11698214D01*
X12267928Y-11755357D02*
X12282214Y-11726786D01*
X12296500Y-11712500D01*
X12325071Y-11698214D01*
X12353643Y-11698214D01*
X12453643Y-11898214D02*
X12453643Y-11698214D01*
X12453643Y-11598214D02*
X12439357Y-11612500D01*
X12453643Y-11626786D01*
X12467928Y-11612500D01*
X12453643Y-11598214D01*
X12453643Y-11626786D01*
X12639357Y-11898214D02*
X12610786Y-11883929D01*
X12596500Y-11855357D01*
X12596500Y-11598214D01*
X12796500Y-11898214D02*
X12767928Y-11883929D01*
X12753643Y-11855357D01*
X12753643Y-11598214D01*
X13139357Y-11898214D02*
X13139357Y-11598214D01*
X13239357Y-11812500D01*
X13339357Y-11598214D01*
X13339357Y-11898214D01*
X13610786Y-11898214D02*
X13610786Y-11741071D01*
X13596500Y-11712500D01*
X13567928Y-11698214D01*
X13510786Y-11698214D01*
X13482214Y-11712500D01*
X13610786Y-11883929D02*
X13582214Y-11898214D01*
X13510786Y-11898214D01*
X13482214Y-11883929D01*
X13467928Y-11855357D01*
X13467928Y-11826786D01*
X13482214Y-11798214D01*
X13510786Y-11783929D01*
X13582214Y-11783929D01*
X13610786Y-11769643D01*
X13753643Y-11698214D02*
X13753643Y-11998214D01*
X13753643Y-11712500D02*
X13782214Y-11698214D01*
X13839357Y-11698214D01*
X13867928Y-11712500D01*
X13882214Y-11726786D01*
X13896500Y-11755357D01*
X13896500Y-11841071D01*
X13882214Y-11869643D01*
X13867928Y-11883929D01*
X13839357Y-11898214D01*
X13782214Y-11898214D01*
X13753643Y-11883929D01*
X14025071Y-11869643D02*
X14039357Y-11883929D01*
X14025071Y-11898214D01*
X14010786Y-11883929D01*
X14025071Y-11869643D01*
X14025071Y-11898214D01*
X14025071Y-11712500D02*
X14039357Y-11726786D01*
X14025071Y-11741071D01*
X14010786Y-11726786D01*
X14025071Y-11712500D01*
X14025071Y-11741071D01*
X11621500Y-12362500D02*
X11681500Y-12422500D01*
X11681500Y-12362500D02*
X11621500Y-12422500D01*
X12025071Y-12228214D02*
X12053643Y-12228214D01*
X12082214Y-12242500D01*
X12096500Y-12256786D01*
X12110786Y-12285357D01*
X12125071Y-12342500D01*
X12125071Y-12413929D01*
X12110786Y-12471071D01*
X12096500Y-12499643D01*
X12082214Y-12513929D01*
X12053643Y-12528214D01*
X12025071Y-12528214D01*
X11996500Y-12513929D01*
X11982214Y-12499643D01*
X11967928Y-12471071D01*
X11953643Y-12413929D01*
X11953643Y-12342500D01*
X11967928Y-12285357D01*
X11982214Y-12256786D01*
X11996500Y-12242500D01*
X12025071Y-12228214D01*
X12253643Y-12499643D02*
X12267928Y-12513929D01*
X12253643Y-12528214D01*
X12239357Y-12513929D01*
X12253643Y-12499643D01*
X12253643Y-12528214D01*
X12525071Y-12228214D02*
X12467928Y-12228214D01*
X12439357Y-12242500D01*
X12425071Y-12256786D01*
X12396500Y-12299643D01*
X12382214Y-12356786D01*
X12382214Y-12471071D01*
X12396500Y-12499643D01*
X12410786Y-12513929D01*
X12439357Y-12528214D01*
X12496500Y-12528214D01*
X12525071Y-12513929D01*
X12539357Y-12499643D01*
X12553643Y-12471071D01*
X12553643Y-12399643D01*
X12539357Y-12371071D01*
X12525071Y-12356786D01*
X12496500Y-12342500D01*
X12439357Y-12342500D01*
X12410786Y-12356786D01*
X12396500Y-12371071D01*
X12382214Y-12399643D01*
X12739357Y-12228214D02*
X12767928Y-12228214D01*
X12796500Y-12242500D01*
X12810786Y-12256786D01*
X12825071Y-12285357D01*
X12839357Y-12342500D01*
X12839357Y-12413929D01*
X12825071Y-12471071D01*
X12810786Y-12499643D01*
X12796500Y-12513929D01*
X12767928Y-12528214D01*
X12739357Y-12528214D01*
X12710786Y-12513929D01*
X12696500Y-12499643D01*
X12682214Y-12471071D01*
X12667928Y-12413929D01*
X12667928Y-12342500D01*
X12682214Y-12285357D01*
X12696500Y-12256786D01*
X12710786Y-12242500D01*
X12739357Y-12228214D01*
X12967928Y-12528214D02*
X12967928Y-12328214D01*
X12967928Y-12356786D02*
X12982214Y-12342500D01*
X13010786Y-12328214D01*
X13053643Y-12328214D01*
X13082214Y-12342500D01*
X13096500Y-12371071D01*
X13096500Y-12528214D01*
X13096500Y-12371071D02*
X13110786Y-12342500D01*
X13139357Y-12328214D01*
X13182214Y-12328214D01*
X13210786Y-12342500D01*
X13225071Y-12371071D01*
X13225071Y-12528214D01*
X13367928Y-12528214D02*
X13367928Y-12328214D01*
X13367928Y-12356786D02*
X13382214Y-12342500D01*
X13410786Y-12328214D01*
X13453643Y-12328214D01*
X13482214Y-12342500D01*
X13496500Y-12371071D01*
X13496500Y-12528214D01*
X13496500Y-12371071D02*
X13510786Y-12342500D01*
X13539357Y-12328214D01*
X13582214Y-12328214D01*
X13610786Y-12342500D01*
X13625071Y-12371071D01*
X13625071Y-12528214D01*
X14210786Y-12213929D02*
X13953643Y-12599643D01*
X14596500Y-12228214D02*
X14625071Y-12228214D01*
X14653643Y-12242500D01*
X14667928Y-12256786D01*
X14682214Y-12285357D01*
X14696500Y-12342500D01*
X14696500Y-12413929D01*
X14682214Y-12471071D01*
X14667928Y-12499643D01*
X14653643Y-12513929D01*
X14625071Y-12528214D01*
X14596500Y-12528214D01*
X14567928Y-12513929D01*
X14553643Y-12499643D01*
X14539357Y-12471071D01*
X14525071Y-12413929D01*
X14525071Y-12342500D01*
X14539357Y-12285357D01*
X14553643Y-12256786D01*
X14567928Y-12242500D01*
X14596500Y-12228214D01*
X14825071Y-12499643D02*
X14839357Y-12513929D01*
X14825071Y-12528214D01*
X14810786Y-12513929D01*
X14825071Y-12499643D01*
X14825071Y-12528214D01*
X15025071Y-12228214D02*
X15053643Y-12228214D01*
X15082214Y-12242500D01*
X15096500Y-12256786D01*
X15110786Y-12285357D01*
X15125071Y-12342500D01*
X15125071Y-12413929D01*
X15110786Y-12471071D01*
X15096500Y-12499643D01*
X15082214Y-12513929D01*
X15053643Y-12528214D01*
X15025071Y-12528214D01*
X14996500Y-12513929D01*
X14982214Y-12499643D01*
X14967928Y-12471071D01*
X14953643Y-12413929D01*
X14953643Y-12342500D01*
X14967928Y-12285357D01*
X14982214Y-12256786D01*
X14996500Y-12242500D01*
X15025071Y-12228214D01*
X15239357Y-12256786D02*
X15253643Y-12242500D01*
X15282214Y-12228214D01*
X15353643Y-12228214D01*
X15382214Y-12242500D01*
X15396500Y-12256786D01*
X15410786Y-12285357D01*
X15410786Y-12313929D01*
X15396500Y-12356786D01*
X15225071Y-12528214D01*
X15410786Y-12528214D01*
X15667928Y-12328214D02*
X15667928Y-12528214D01*
X15596500Y-12213929D02*
X15525071Y-12428214D01*
X15710786Y-12428214D01*
X15810786Y-12228214D02*
X15810786Y-12285357D01*
X15925071Y-12228214D02*
X15925071Y-12285357D01*
X16367928Y-12642500D02*
X16353643Y-12628214D01*
X16325071Y-12585357D01*
X16310786Y-12556786D01*
X16296500Y-12513929D01*
X16282214Y-12442500D01*
X16282214Y-12385357D01*
X16296500Y-12313929D01*
X16310786Y-12271071D01*
X16325071Y-12242500D01*
X16353643Y-12199643D01*
X16367928Y-12185357D01*
X16467928Y-12256786D02*
X16482214Y-12242500D01*
X16510786Y-12228214D01*
X16582214Y-12228214D01*
X16610786Y-12242500D01*
X16625071Y-12256786D01*
X16639357Y-12285357D01*
X16639357Y-12313929D01*
X16625071Y-12356786D01*
X16453643Y-12528214D01*
X16639357Y-12528214D01*
X16996500Y-12528214D02*
X16996500Y-12228214D01*
X17125071Y-12528214D02*
X17125071Y-12371071D01*
X17110786Y-12342500D01*
X17082214Y-12328214D01*
X17039357Y-12328214D01*
X17010786Y-12342500D01*
X16996500Y-12356786D01*
X17310786Y-12528214D02*
X17282214Y-12513929D01*
X17267928Y-12499643D01*
X17253643Y-12471071D01*
X17253643Y-12385357D01*
X17267928Y-12356786D01*
X17282214Y-12342500D01*
X17310786Y-12328214D01*
X17353643Y-12328214D01*
X17382214Y-12342500D01*
X17396500Y-12356786D01*
X17410786Y-12385357D01*
X17410786Y-12471071D01*
X17396500Y-12499643D01*
X17382214Y-12513929D01*
X17353643Y-12528214D01*
X17310786Y-12528214D01*
X17582214Y-12528214D02*
X17553643Y-12513929D01*
X17539357Y-12485357D01*
X17539357Y-12228214D01*
X17810786Y-12513929D02*
X17782214Y-12528214D01*
X17725071Y-12528214D01*
X17696500Y-12513929D01*
X17682214Y-12485357D01*
X17682214Y-12371071D01*
X17696500Y-12342500D01*
X17725071Y-12328214D01*
X17782214Y-12328214D01*
X17810786Y-12342500D01*
X17825071Y-12371071D01*
X17825071Y-12399643D01*
X17682214Y-12428214D01*
X17939357Y-12513929D02*
X17967928Y-12528214D01*
X18025071Y-12528214D01*
X18053643Y-12513929D01*
X18067928Y-12485357D01*
X18067928Y-12471071D01*
X18053643Y-12442500D01*
X18025071Y-12428214D01*
X17982214Y-12428214D01*
X17953643Y-12413929D01*
X17939357Y-12385357D01*
X17939357Y-12371071D01*
X17953643Y-12342500D01*
X17982214Y-12328214D01*
X18025071Y-12328214D01*
X18053643Y-12342500D01*
X18167928Y-12642500D02*
X18182214Y-12628214D01*
X18210786Y-12585357D01*
X18225071Y-12556786D01*
X18239357Y-12513929D01*
X18253643Y-12442500D01*
X18253643Y-12385357D01*
X18239357Y-12313929D01*
X18225071Y-12271071D01*
X18210786Y-12242500D01*
X18182214Y-12199643D01*
X18167928Y-12185357D01*
X11681500Y-12788500D02*
G75*
G03*
X11681500Y-12788500I-55000J0D01*
G01*
X12125071Y-12924214D02*
X11953643Y-12924214D01*
X12039357Y-12924214D02*
X12039357Y-12624214D01*
X12010786Y-12667071D01*
X11982214Y-12695643D01*
X11953643Y-12709929D01*
X12253643Y-12895643D02*
X12267928Y-12909929D01*
X12253643Y-12924214D01*
X12239357Y-12909929D01*
X12253643Y-12895643D01*
X12253643Y-12924214D01*
X12553643Y-12924214D02*
X12382214Y-12924214D01*
X12467928Y-12924214D02*
X12467928Y-12624214D01*
X12439357Y-12667071D01*
X12410786Y-12695643D01*
X12382214Y-12709929D01*
X12739357Y-12624214D02*
X12767928Y-12624214D01*
X12796500Y-12638500D01*
X12810786Y-12652786D01*
X12825071Y-12681357D01*
X12839357Y-12738500D01*
X12839357Y-12809929D01*
X12825071Y-12867071D01*
X12810786Y-12895643D01*
X12796500Y-12909929D01*
X12767928Y-12924214D01*
X12739357Y-12924214D01*
X12710786Y-12909929D01*
X12696500Y-12895643D01*
X12682214Y-12867071D01*
X12667928Y-12809929D01*
X12667928Y-12738500D01*
X12682214Y-12681357D01*
X12696500Y-12652786D01*
X12710786Y-12638500D01*
X12739357Y-12624214D01*
X12967928Y-12924214D02*
X12967928Y-12724214D01*
X12967928Y-12752786D02*
X12982214Y-12738500D01*
X13010786Y-12724214D01*
X13053643Y-12724214D01*
X13082214Y-12738500D01*
X13096500Y-12767071D01*
X13096500Y-12924214D01*
X13096500Y-12767071D02*
X13110786Y-12738500D01*
X13139357Y-12724214D01*
X13182214Y-12724214D01*
X13210786Y-12738500D01*
X13225071Y-12767071D01*
X13225071Y-12924214D01*
X13367928Y-12924214D02*
X13367928Y-12724214D01*
X13367928Y-12752786D02*
X13382214Y-12738500D01*
X13410786Y-12724214D01*
X13453643Y-12724214D01*
X13482214Y-12738500D01*
X13496500Y-12767071D01*
X13496500Y-12924214D01*
X13496500Y-12767071D02*
X13510786Y-12738500D01*
X13539357Y-12724214D01*
X13582214Y-12724214D01*
X13610786Y-12738500D01*
X13625071Y-12767071D01*
X13625071Y-12924214D01*
X14210786Y-12609929D02*
X13953643Y-12995643D01*
X14596500Y-12624214D02*
X14625071Y-12624214D01*
X14653643Y-12638500D01*
X14667928Y-12652786D01*
X14682214Y-12681357D01*
X14696500Y-12738500D01*
X14696500Y-12809929D01*
X14682214Y-12867071D01*
X14667928Y-12895643D01*
X14653643Y-12909929D01*
X14625071Y-12924214D01*
X14596500Y-12924214D01*
X14567928Y-12909929D01*
X14553643Y-12895643D01*
X14539357Y-12867071D01*
X14525071Y-12809929D01*
X14525071Y-12738500D01*
X14539357Y-12681357D01*
X14553643Y-12652786D01*
X14567928Y-12638500D01*
X14596500Y-12624214D01*
X14825071Y-12895643D02*
X14839357Y-12909929D01*
X14825071Y-12924214D01*
X14810786Y-12909929D01*
X14825071Y-12895643D01*
X14825071Y-12924214D01*
X15025071Y-12624214D02*
X15053643Y-12624214D01*
X15082214Y-12638500D01*
X15096500Y-12652786D01*
X15110786Y-12681357D01*
X15125071Y-12738500D01*
X15125071Y-12809929D01*
X15110786Y-12867071D01*
X15096500Y-12895643D01*
X15082214Y-12909929D01*
X15053643Y-12924214D01*
X15025071Y-12924214D01*
X14996500Y-12909929D01*
X14982214Y-12895643D01*
X14967928Y-12867071D01*
X14953643Y-12809929D01*
X14953643Y-12738500D01*
X14967928Y-12681357D01*
X14982214Y-12652786D01*
X14996500Y-12638500D01*
X15025071Y-12624214D01*
X15382214Y-12724214D02*
X15382214Y-12924214D01*
X15310786Y-12609929D02*
X15239357Y-12824214D01*
X15425071Y-12824214D01*
X15510786Y-12624214D02*
X15696500Y-12624214D01*
X15596500Y-12738500D01*
X15639357Y-12738500D01*
X15667928Y-12752786D01*
X15682214Y-12767071D01*
X15696500Y-12795643D01*
X15696500Y-12867071D01*
X15682214Y-12895643D01*
X15667928Y-12909929D01*
X15639357Y-12924214D01*
X15553643Y-12924214D01*
X15525071Y-12909929D01*
X15510786Y-12895643D01*
X15810786Y-12624214D02*
X15810786Y-12681357D01*
X15925071Y-12624214D02*
X15925071Y-12681357D01*
X16367928Y-13038500D02*
X16353643Y-13024214D01*
X16325071Y-12981357D01*
X16310786Y-12952786D01*
X16296500Y-12909929D01*
X16282214Y-12838500D01*
X16282214Y-12781357D01*
X16296500Y-12709929D01*
X16310786Y-12667071D01*
X16325071Y-12638500D01*
X16353643Y-12595643D01*
X16367928Y-12581357D01*
X16496500Y-12924214D02*
X16553643Y-12924214D01*
X16582214Y-12909929D01*
X16596500Y-12895643D01*
X16625071Y-12852786D01*
X16639357Y-12795643D01*
X16639357Y-12681357D01*
X16625071Y-12652786D01*
X16610786Y-12638500D01*
X16582214Y-12624214D01*
X16525071Y-12624214D01*
X16496500Y-12638500D01*
X16482214Y-12652786D01*
X16467928Y-12681357D01*
X16467928Y-12752786D01*
X16482214Y-12781357D01*
X16496500Y-12795643D01*
X16525071Y-12809929D01*
X16582214Y-12809929D01*
X16610786Y-12795643D01*
X16625071Y-12781357D01*
X16639357Y-12752786D01*
X16996500Y-12924214D02*
X16996500Y-12624214D01*
X17125071Y-12924214D02*
X17125071Y-12767071D01*
X17110786Y-12738500D01*
X17082214Y-12724214D01*
X17039357Y-12724214D01*
X17010786Y-12738500D01*
X16996500Y-12752786D01*
X17310786Y-12924214D02*
X17282214Y-12909929D01*
X17267928Y-12895643D01*
X17253643Y-12867071D01*
X17253643Y-12781357D01*
X17267928Y-12752786D01*
X17282214Y-12738500D01*
X17310786Y-12724214D01*
X17353643Y-12724214D01*
X17382214Y-12738500D01*
X17396500Y-12752786D01*
X17410786Y-12781357D01*
X17410786Y-12867071D01*
X17396500Y-12895643D01*
X17382214Y-12909929D01*
X17353643Y-12924214D01*
X17310786Y-12924214D01*
X17582214Y-12924214D02*
X17553643Y-12909929D01*
X17539357Y-12881357D01*
X17539357Y-12624214D01*
X17810786Y-12909929D02*
X17782214Y-12924214D01*
X17725071Y-12924214D01*
X17696500Y-12909929D01*
X17682214Y-12881357D01*
X17682214Y-12767071D01*
X17696500Y-12738500D01*
X17725071Y-12724214D01*
X17782214Y-12724214D01*
X17810786Y-12738500D01*
X17825071Y-12767071D01*
X17825071Y-12795643D01*
X17682214Y-12824214D01*
X17939357Y-12909929D02*
X17967928Y-12924214D01*
X18025071Y-12924214D01*
X18053643Y-12909929D01*
X18067928Y-12881357D01*
X18067928Y-12867071D01*
X18053643Y-12838500D01*
X18025071Y-12824214D01*
X17982214Y-12824214D01*
X17953643Y-12809929D01*
X17939357Y-12781357D01*
X17939357Y-12767071D01*
X17953643Y-12738500D01*
X17982214Y-12724214D01*
X18025071Y-12724214D01*
X18053643Y-12738500D01*
X18167928Y-13038500D02*
X18182214Y-13024214D01*
X18210786Y-12981357D01*
X18225071Y-12952786D01*
X18239357Y-12909929D01*
X18253643Y-12838500D01*
X18253643Y-12781357D01*
X18239357Y-12709929D01*
X18225071Y-12667071D01*
X18210786Y-12638500D01*
X18182214Y-12595643D01*
X18167928Y-12581357D01*
M02*
