%TF.GenerationSoftware,KiCad,Pcbnew,(5.1.9)-1*%
%TF.CreationDate,2021-03-24T11:57:42+05:30*%
%TF.ProjectId,dcmo,64636d6f-2e6b-4696-9361-645f70636258,rev?*%
%TF.SameCoordinates,Original*%
%TF.FileFunction,Copper,L1,Top*%
%TF.FilePolarity,Positive*%
%FSLAX46Y46*%
G04 Gerber Fmt 4.6, Leading zero omitted, Abs format (unit mm)*
G04 Created by KiCad (PCBNEW (5.1.9)-1) date 2021-03-24 11:57:42*
%MOMM*%
%LPD*%
G01*
G04 APERTURE LIST*
%TA.AperFunction,SMDPad,CuDef*%
%ADD10C,4.000000*%
%TD*%
%TA.AperFunction,SMDPad,CuDef*%
%ADD11R,2.500000X2.500000*%
%TD*%
%TA.AperFunction,ComponentPad*%
%ADD12O,1.905000X2.000000*%
%TD*%
%TA.AperFunction,ComponentPad*%
%ADD13R,1.905000X2.000000*%
%TD*%
%TA.AperFunction,ComponentPad*%
%ADD14C,1.600000*%
%TD*%
%TA.AperFunction,ComponentPad*%
%ADD15O,2.200000X2.200000*%
%TD*%
%TA.AperFunction,ComponentPad*%
%ADD16R,2.200000X2.200000*%
%TD*%
%TA.AperFunction,Conductor*%
%ADD17C,0.250000*%
%TD*%
G04 APERTURE END LIST*
%TO.P,U1,1*%
%TO.N,Net-(U1-Pad1)*%
%TA.AperFunction,SMDPad,CuDef*%
G36*
G01*
X143995000Y-95610000D02*
X144295000Y-95610000D01*
G75*
G02*
X144445000Y-95760000I0J-150000D01*
G01*
X144445000Y-97410000D01*
G75*
G02*
X144295000Y-97560000I-150000J0D01*
G01*
X143995000Y-97560000D01*
G75*
G02*
X143845000Y-97410000I0J150000D01*
G01*
X143845000Y-95760000D01*
G75*
G02*
X143995000Y-95610000I150000J0D01*
G01*
G37*
%TD.AperFunction*%
%TO.P,U1,2*%
%TO.N,/TRTHR*%
%TA.AperFunction,SMDPad,CuDef*%
G36*
G01*
X142725000Y-95610000D02*
X143025000Y-95610000D01*
G75*
G02*
X143175000Y-95760000I0J-150000D01*
G01*
X143175000Y-97410000D01*
G75*
G02*
X143025000Y-97560000I-150000J0D01*
G01*
X142725000Y-97560000D01*
G75*
G02*
X142575000Y-97410000I0J150000D01*
G01*
X142575000Y-95760000D01*
G75*
G02*
X142725000Y-95610000I150000J0D01*
G01*
G37*
%TD.AperFunction*%
%TO.P,U1,3*%
%TO.N,Net-(R2-Pad2)*%
%TA.AperFunction,SMDPad,CuDef*%
G36*
G01*
X141455000Y-95610000D02*
X141755000Y-95610000D01*
G75*
G02*
X141905000Y-95760000I0J-150000D01*
G01*
X141905000Y-97410000D01*
G75*
G02*
X141755000Y-97560000I-150000J0D01*
G01*
X141455000Y-97560000D01*
G75*
G02*
X141305000Y-97410000I0J150000D01*
G01*
X141305000Y-95760000D01*
G75*
G02*
X141455000Y-95610000I150000J0D01*
G01*
G37*
%TD.AperFunction*%
%TO.P,U1,4*%
%TO.N,/R*%
%TA.AperFunction,SMDPad,CuDef*%
G36*
G01*
X140185000Y-95610000D02*
X140485000Y-95610000D01*
G75*
G02*
X140635000Y-95760000I0J-150000D01*
G01*
X140635000Y-97410000D01*
G75*
G02*
X140485000Y-97560000I-150000J0D01*
G01*
X140185000Y-97560000D01*
G75*
G02*
X140035000Y-97410000I0J150000D01*
G01*
X140035000Y-95760000D01*
G75*
G02*
X140185000Y-95610000I150000J0D01*
G01*
G37*
%TD.AperFunction*%
%TO.P,U1,5*%
%TO.N,Net-(C2-Pad1)*%
%TA.AperFunction,SMDPad,CuDef*%
G36*
G01*
X140185000Y-100560000D02*
X140485000Y-100560000D01*
G75*
G02*
X140635000Y-100710000I0J-150000D01*
G01*
X140635000Y-102360000D01*
G75*
G02*
X140485000Y-102510000I-150000J0D01*
G01*
X140185000Y-102510000D01*
G75*
G02*
X140035000Y-102360000I0J150000D01*
G01*
X140035000Y-100710000D01*
G75*
G02*
X140185000Y-100560000I150000J0D01*
G01*
G37*
%TD.AperFunction*%
%TO.P,U1,6*%
%TO.N,/TRTHR*%
%TA.AperFunction,SMDPad,CuDef*%
G36*
G01*
X141455000Y-100560000D02*
X141755000Y-100560000D01*
G75*
G02*
X141905000Y-100710000I0J-150000D01*
G01*
X141905000Y-102360000D01*
G75*
G02*
X141755000Y-102510000I-150000J0D01*
G01*
X141455000Y-102510000D01*
G75*
G02*
X141305000Y-102360000I0J150000D01*
G01*
X141305000Y-100710000D01*
G75*
G02*
X141455000Y-100560000I150000J0D01*
G01*
G37*
%TD.AperFunction*%
%TO.P,U1,7*%
%TO.N,/DIS*%
%TA.AperFunction,SMDPad,CuDef*%
G36*
G01*
X142725000Y-100560000D02*
X143025000Y-100560000D01*
G75*
G02*
X143175000Y-100710000I0J-150000D01*
G01*
X143175000Y-102360000D01*
G75*
G02*
X143025000Y-102510000I-150000J0D01*
G01*
X142725000Y-102510000D01*
G75*
G02*
X142575000Y-102360000I0J150000D01*
G01*
X142575000Y-100710000D01*
G75*
G02*
X142725000Y-100560000I150000J0D01*
G01*
G37*
%TD.AperFunction*%
%TO.P,U1,8*%
%TO.N,/R*%
%TA.AperFunction,SMDPad,CuDef*%
G36*
G01*
X143995000Y-100560000D02*
X144295000Y-100560000D01*
G75*
G02*
X144445000Y-100710000I0J-150000D01*
G01*
X144445000Y-102360000D01*
G75*
G02*
X144295000Y-102510000I-150000J0D01*
G01*
X143995000Y-102510000D01*
G75*
G02*
X143845000Y-102360000I0J150000D01*
G01*
X143845000Y-100710000D01*
G75*
G02*
X143995000Y-100560000I150000J0D01*
G01*
G37*
%TD.AperFunction*%
%TD*%
D10*
%TO.P,TP1,1*%
%TO.N,/R*%
X144780000Y-86360000D03*
%TD*%
D11*
%TO.P,RV1,1*%
%TO.N,Net-(D2-Pad1)*%
X126960000Y-93525000D03*
%TO.P,RV1,2*%
%TO.N,/TRTHR*%
X124460000Y-84275000D03*
%TO.P,RV1,3*%
%TO.N,Net-(D1-Pad2)*%
X121960000Y-93525000D03*
%TD*%
%TO.P,R2,2*%
%TO.N,Net-(R2-Pad2)*%
%TA.AperFunction,SMDPad,CuDef*%
G36*
G01*
X142884999Y-92340000D02*
X144135001Y-92340000D01*
G75*
G02*
X144385000Y-92589999I0J-249999D01*
G01*
X144385000Y-93215001D01*
G75*
G02*
X144135001Y-93465000I-249999J0D01*
G01*
X142884999Y-93465000D01*
G75*
G02*
X142635000Y-93215001I0J249999D01*
G01*
X142635000Y-92589999D01*
G75*
G02*
X142884999Y-92340000I249999J0D01*
G01*
G37*
%TD.AperFunction*%
%TO.P,R2,1*%
%TO.N,Net-(Q1-Pad1)*%
%TA.AperFunction,SMDPad,CuDef*%
G36*
G01*
X142884999Y-89415000D02*
X144135001Y-89415000D01*
G75*
G02*
X144385000Y-89664999I0J-249999D01*
G01*
X144385000Y-90290001D01*
G75*
G02*
X144135001Y-90540000I-249999J0D01*
G01*
X142884999Y-90540000D01*
G75*
G02*
X142635000Y-90290001I0J249999D01*
G01*
X142635000Y-89664999D01*
G75*
G02*
X142884999Y-89415000I249999J0D01*
G01*
G37*
%TD.AperFunction*%
%TD*%
%TO.P,R1,2*%
%TO.N,/DIS*%
%TA.AperFunction,SMDPad,CuDef*%
G36*
G01*
X141340000Y-107324999D02*
X141340000Y-108575001D01*
G75*
G02*
X141090001Y-108825000I-249999J0D01*
G01*
X140464999Y-108825000D01*
G75*
G02*
X140215000Y-108575001I0J249999D01*
G01*
X140215000Y-107324999D01*
G75*
G02*
X140464999Y-107075000I249999J0D01*
G01*
X141090001Y-107075000D01*
G75*
G02*
X141340000Y-107324999I0J-249999D01*
G01*
G37*
%TD.AperFunction*%
%TO.P,R1,1*%
%TO.N,/R*%
%TA.AperFunction,SMDPad,CuDef*%
G36*
G01*
X144265000Y-107324999D02*
X144265000Y-108575001D01*
G75*
G02*
X144015001Y-108825000I-249999J0D01*
G01*
X143389999Y-108825000D01*
G75*
G02*
X143140000Y-108575001I0J249999D01*
G01*
X143140000Y-107324999D01*
G75*
G02*
X143389999Y-107075000I249999J0D01*
G01*
X144015001Y-107075000D01*
G75*
G02*
X144265000Y-107324999I0J-249999D01*
G01*
G37*
%TD.AperFunction*%
%TD*%
D12*
%TO.P,Q1,3*%
%TO.N,GNDREF*%
X140970000Y-80010000D03*
%TO.P,Q1,2*%
%TO.N,Net-(D3-Pad2)*%
X138430000Y-80010000D03*
D13*
%TO.P,Q1,1*%
%TO.N,Net-(Q1-Pad1)*%
X135890000Y-80010000D03*
%TD*%
D14*
%TO.P,J1,2*%
%TO.N,/R*%
X147530000Y-111760000D03*
%TO.P,J1,1*%
%TO.N,Net-(D3-Pad2)*%
%TA.AperFunction,ComponentPad*%
G36*
G01*
X151930000Y-111210000D02*
X151930000Y-112310000D01*
G75*
G02*
X151680000Y-112560000I-250000J0D01*
G01*
X150580000Y-112560000D01*
G75*
G02*
X150330000Y-112310000I0J250000D01*
G01*
X150330000Y-111210000D01*
G75*
G02*
X150580000Y-110960000I250000J0D01*
G01*
X151680000Y-110960000D01*
G75*
G02*
X151930000Y-111210000I0J-250000D01*
G01*
G37*
%TD.AperFunction*%
%TD*%
D10*
%TO.P,GND2,1*%
%TO.N,GNDREF*%
X133350000Y-95250000D03*
%TD*%
%TO.P,GND1,1*%
%TO.N,GNDREF*%
X152400000Y-86360000D03*
%TD*%
D15*
%TO.P,D3,2*%
%TO.N,Net-(D3-Pad2)*%
X151130000Y-92710000D03*
D16*
%TO.P,D3,1*%
%TO.N,/R*%
X151130000Y-102870000D03*
%TD*%
D15*
%TO.P,D2,2*%
%TO.N,/DIS*%
X128270000Y-111760000D03*
D16*
%TO.P,D2,1*%
%TO.N,Net-(D2-Pad1)*%
X128270000Y-101600000D03*
%TD*%
D15*
%TO.P,D1,2*%
%TO.N,Net-(D1-Pad2)*%
X120650000Y-101600000D03*
D16*
%TO.P,D1,1*%
%TO.N,/DIS*%
X120650000Y-111760000D03*
%TD*%
%TO.P,C2,2*%
%TO.N,GNDREF*%
%TA.AperFunction,SMDPad,CuDef*%
G36*
G01*
X134000001Y-100700000D02*
X132699999Y-100700000D01*
G75*
G02*
X132450000Y-100450001I0J249999D01*
G01*
X132450000Y-99799999D01*
G75*
G02*
X132699999Y-99550000I249999J0D01*
G01*
X134000001Y-99550000D01*
G75*
G02*
X134250000Y-99799999I0J-249999D01*
G01*
X134250000Y-100450001D01*
G75*
G02*
X134000001Y-100700000I-249999J0D01*
G01*
G37*
%TD.AperFunction*%
%TO.P,C2,1*%
%TO.N,Net-(C2-Pad1)*%
%TA.AperFunction,SMDPad,CuDef*%
G36*
G01*
X134000001Y-103650000D02*
X132699999Y-103650000D01*
G75*
G02*
X132450000Y-103400001I0J249999D01*
G01*
X132450000Y-102749999D01*
G75*
G02*
X132699999Y-102500000I249999J0D01*
G01*
X134000001Y-102500000D01*
G75*
G02*
X134250000Y-102749999I0J-249999D01*
G01*
X134250000Y-103400001D01*
G75*
G02*
X134000001Y-103650000I-249999J0D01*
G01*
G37*
%TD.AperFunction*%
%TD*%
%TO.P,C1,2*%
%TO.N,GNDREF*%
%TA.AperFunction,SMDPad,CuDef*%
G36*
G01*
X133720000Y-107299999D02*
X133720000Y-108600001D01*
G75*
G02*
X133470001Y-108850000I-249999J0D01*
G01*
X132819999Y-108850000D01*
G75*
G02*
X132570000Y-108600001I0J249999D01*
G01*
X132570000Y-107299999D01*
G75*
G02*
X132819999Y-107050000I249999J0D01*
G01*
X133470001Y-107050000D01*
G75*
G02*
X133720000Y-107299999I0J-249999D01*
G01*
G37*
%TD.AperFunction*%
%TO.P,C1,1*%
%TO.N,/TRTHR*%
%TA.AperFunction,SMDPad,CuDef*%
G36*
G01*
X136670000Y-107299999D02*
X136670000Y-108600001D01*
G75*
G02*
X136420001Y-108850000I-249999J0D01*
G01*
X135769999Y-108850000D01*
G75*
G02*
X135520000Y-108600001I0J249999D01*
G01*
X135520000Y-107299999D01*
G75*
G02*
X135769999Y-107050000I249999J0D01*
G01*
X136420001Y-107050000D01*
G75*
G02*
X136670000Y-107299999I0J-249999D01*
G01*
G37*
%TD.AperFunction*%
%TD*%
D17*
%TO.N,GNDREF*%
X132124990Y-101350010D02*
X133350000Y-100125000D01*
X132124990Y-106929990D02*
X132124990Y-101350010D01*
X133145000Y-107950000D02*
X132124990Y-106929990D01*
X133350000Y-100125000D02*
X133350000Y-95250000D01*
X122949999Y-82699999D02*
X134481809Y-82699999D01*
X122884999Y-82764999D02*
X122949999Y-82699999D01*
X122884999Y-85785001D02*
X122884999Y-82764999D01*
X132349998Y-95250000D02*
X122884999Y-85785001D01*
X134481809Y-82699999D02*
X142646820Y-90865010D01*
X133350000Y-95250000D02*
X132349998Y-95250000D01*
X140970000Y-86801090D02*
X140970000Y-80010000D01*
X143258900Y-89089990D02*
X140970000Y-86801090D01*
X144710010Y-90528180D02*
X144710010Y-89426820D01*
X144373180Y-90865010D02*
X144710010Y-90528180D01*
X142646820Y-90865010D02*
X144373180Y-90865010D01*
X144710010Y-89426820D02*
X144373180Y-89089990D01*
X134612499Y-82830689D02*
X142646820Y-90865010D01*
X134612499Y-78749999D02*
X134612499Y-82830689D01*
X144373180Y-89089990D02*
X143258900Y-89089990D01*
X135127518Y-78234980D02*
X134612499Y-78749999D01*
X144274980Y-78234980D02*
X135127518Y-78234980D01*
X152400000Y-86360000D02*
X144274980Y-78234980D01*
%TO.N,/TRTHR*%
X141605000Y-101535000D02*
X141605000Y-99695000D01*
X142875000Y-98425000D02*
X142875000Y-96585000D01*
X141605000Y-99695000D02*
X142875000Y-98425000D01*
X125741822Y-84275000D02*
X124460000Y-84275000D01*
X139801841Y-98335019D02*
X125741822Y-84275000D01*
X141501749Y-98335019D02*
X139801841Y-98335019D01*
X142875000Y-96961768D02*
X141501749Y-98335019D01*
X142875000Y-96585000D02*
X142875000Y-96961768D01*
X141605000Y-102440000D02*
X141605000Y-101535000D01*
X136095000Y-107950000D02*
X141605000Y-102440000D01*
%TO.N,Net-(C2-Pad1)*%
X138795000Y-103075000D02*
X140335000Y-101535000D01*
X133350000Y-103075000D02*
X138795000Y-103075000D01*
%TO.N,Net-(D1-Pad2)*%
X120650000Y-94835000D02*
X121960000Y-93525000D01*
X120650000Y-101600000D02*
X120650000Y-94835000D01*
%TO.N,/DIS*%
X142875000Y-105852500D02*
X142875000Y-101535000D01*
X140777500Y-107950000D02*
X142875000Y-105852500D01*
X136967500Y-111760000D02*
X140777500Y-107950000D01*
X128270000Y-111760000D02*
X136967500Y-111760000D01*
X120650000Y-111760000D02*
X128270000Y-111760000D01*
%TO.N,Net-(D2-Pad1)*%
X128270000Y-94835000D02*
X126960000Y-93525000D01*
X128270000Y-101600000D02*
X128270000Y-94835000D01*
%TO.N,Net-(D3-Pad2)*%
X152555001Y-101509999D02*
X152490001Y-101444999D01*
X152555001Y-110334999D02*
X152555001Y-101509999D01*
X151130000Y-111760000D02*
X152555001Y-110334999D01*
X152490001Y-94070001D02*
X151130000Y-92710000D01*
X152490001Y-101444999D02*
X152490001Y-94070001D01*
X139755010Y-78684990D02*
X138430000Y-80010000D01*
X141499161Y-78684990D02*
X139755010Y-78684990D01*
X150030001Y-87215830D02*
X141499161Y-78684990D01*
X150030001Y-91610001D02*
X150030001Y-87215830D01*
X151130000Y-92710000D02*
X150030001Y-91610001D01*
%TO.N,Net-(Q1-Pad1)*%
X135890000Y-82357500D02*
X135890000Y-80010000D01*
X143510000Y-89977500D02*
X135890000Y-82357500D01*
%TO.N,/R*%
X144145000Y-101535000D02*
X144845000Y-101535000D01*
X144845000Y-101535000D02*
X146180000Y-102870000D01*
X146180000Y-102870000D02*
X147320000Y-102870000D01*
X147320000Y-102870000D02*
X151130000Y-102870000D01*
X140335000Y-95610000D02*
X140335000Y-96585000D01*
X141965000Y-93980000D02*
X140335000Y-95610000D01*
X147320000Y-93980000D02*
X141965000Y-93980000D01*
X147320000Y-102870000D02*
X147320000Y-93980000D01*
X143702500Y-107950000D02*
X143702500Y-105217500D01*
X146050000Y-102870000D02*
X146180000Y-102870000D01*
X143702500Y-105217500D02*
X146050000Y-102870000D01*
X147512500Y-111760000D02*
X147530000Y-111760000D01*
X143702500Y-107950000D02*
X147512500Y-111760000D01*
X147320000Y-88900000D02*
X144780000Y-86360000D01*
X147320000Y-93980000D02*
X147320000Y-88900000D01*
%TO.N,Net-(R2-Pad2)*%
X142370732Y-92902500D02*
X143510000Y-92902500D01*
X139709990Y-95563242D02*
X142370732Y-92902500D01*
X139709990Y-97606758D02*
X139709990Y-95563242D01*
X139988242Y-97885010D02*
X139709990Y-97606758D01*
X141605000Y-96961768D02*
X140681758Y-97885010D01*
X140681758Y-97885010D02*
X139988242Y-97885010D01*
X141605000Y-96585000D02*
X141605000Y-96961768D01*
%TD*%
M02*
