%TF.GenerationSoftware,KiCad,Pcbnew,(5.1.9)-1*%
%TF.CreationDate,2021-03-24T11:57:43+05:30*%
%TF.ProjectId,dcmo,64636d6f-2e6b-4696-9361-645f70636258,rev?*%
%TF.SameCoordinates,Original*%
%TF.FileFunction,Other,User*%
%FSLAX46Y46*%
G04 Gerber Fmt 4.6, Leading zero omitted, Abs format (unit mm)*
G04 Created by KiCad (PCBNEW (5.1.9)-1) date 2021-03-24 11:57:43*
%MOMM*%
%LPD*%
G01*
G04 APERTURE LIST*
%ADD10C,0.050000*%
G04 APERTURE END LIST*
D10*
%TO.C,U1*%
X144940000Y-102760000D02*
X144940000Y-95360000D01*
X139540000Y-102760000D02*
X144940000Y-102760000D01*
X139540000Y-95360000D02*
X139540000Y-102760000D01*
X144940000Y-95360000D02*
X139540000Y-95360000D01*
%TO.C,TP1*%
X147280000Y-86360000D02*
G75*
G03*
X147280000Y-86360000I-2500000J0D01*
G01*
%TO.C,RV1*%
X119310000Y-95050000D02*
X129610000Y-95050000D01*
X129610000Y-95050000D02*
X129610000Y-82750000D01*
X129610000Y-82750000D02*
X119310000Y-82750000D01*
X119310000Y-82750000D02*
X119310000Y-95050000D01*
%TO.C,R2*%
X142390000Y-89160000D02*
X144630000Y-89160000D01*
X144630000Y-89160000D02*
X144630000Y-93720000D01*
X144630000Y-93720000D02*
X142390000Y-93720000D01*
X142390000Y-93720000D02*
X142390000Y-89160000D01*
%TO.C,R1*%
X144520000Y-106830000D02*
X144520000Y-109070000D01*
X144520000Y-109070000D02*
X139960000Y-109070000D01*
X139960000Y-109070000D02*
X139960000Y-106830000D01*
X139960000Y-106830000D02*
X144520000Y-106830000D01*
%TO.C,Q1*%
X133180000Y-76610000D02*
X133180000Y-81520000D01*
X133180000Y-81520000D02*
X143680000Y-81520000D01*
X143680000Y-81520000D02*
X143680000Y-76610000D01*
X143680000Y-76610000D02*
X133180000Y-76610000D01*
%TO.C,J1*%
X152430000Y-113060000D02*
X152430000Y-110460000D01*
X152430000Y-110460000D02*
X149830000Y-110460000D01*
X149830000Y-110460000D02*
X149830000Y-113060000D01*
X149830000Y-113060000D02*
X152430000Y-113060000D01*
X148830000Y-113060000D02*
X148830000Y-110460000D01*
X148830000Y-110460000D02*
X146230000Y-110460000D01*
X146230000Y-110460000D02*
X146230000Y-113060000D01*
X146230000Y-113060000D02*
X148830000Y-113060000D01*
%TO.C,GND2*%
X135850000Y-95250000D02*
G75*
G03*
X135850000Y-95250000I-2500000J0D01*
G01*
%TO.C,GND1*%
X154900000Y-86360000D02*
G75*
G03*
X154900000Y-86360000I-2500000J0D01*
G01*
%TO.C,D3*%
X149530000Y-104220000D02*
X152730000Y-104220000D01*
X152730000Y-104220000D02*
X152730000Y-91360000D01*
X152730000Y-91360000D02*
X149530000Y-91360000D01*
X149530000Y-91360000D02*
X149530000Y-104220000D01*
%TO.C,D2*%
X129870000Y-100250000D02*
X126670000Y-100250000D01*
X126670000Y-100250000D02*
X126670000Y-113110000D01*
X126670000Y-113110000D02*
X129870000Y-113110000D01*
X129870000Y-113110000D02*
X129870000Y-100250000D01*
%TO.C,D1*%
X119050000Y-113110000D02*
X122250000Y-113110000D01*
X122250000Y-113110000D02*
X122250000Y-100250000D01*
X122250000Y-100250000D02*
X119050000Y-100250000D01*
X119050000Y-100250000D02*
X119050000Y-113110000D01*
%TO.C,C2*%
X134500000Y-103900000D02*
X132200000Y-103900000D01*
X132200000Y-103900000D02*
X132200000Y-99300000D01*
X132200000Y-99300000D02*
X134500000Y-99300000D01*
X134500000Y-99300000D02*
X134500000Y-103900000D01*
%TO.C,C1*%
X136920000Y-106800000D02*
X136920000Y-109100000D01*
X136920000Y-109100000D02*
X132320000Y-109100000D01*
X132320000Y-109100000D02*
X132320000Y-106800000D01*
X132320000Y-106800000D02*
X136920000Y-106800000D01*
%TD*%
M02*
